<svg width="186" height="85" viewBox="0 0 186 85" fill="none" xmlns="http://www.w3.org/2000/svg">
<path d="M3.42646 0.875037L0.0566504 3.04154C4.56128 9.10934 7.21009 19.5059 15.5754 23.0115C28.4264 28.3967 38.1931 21.9471 51.6711 26.544C70.5038 32.9673 107.259 75.1195 72.5207 66.76C65.3461 65.0335 59.7711 57.4566 60.114 51.7583C60.6622 42.648 69.9566 42.9479 79.0297 43.9373C99.5716 46.1773 101.556 59.4767 132.167 67.0376C150.565 70.0575 158.083 64.5002 184.272 84.0455C187.386 86.3694 184.013 74.4888 184.013 74.4888C165.114 64.2496 161.602 64.4892 136.55 62.3173C111.016 60.1035 103.302 40.6628 78.8957 38.9939C69.807 38.3724 58.3942 38.1062 55.5401 49.4463C53.1119 59.0942 62.335 69.0231 71.9314 71.648C115.158 83.4723 81.1983 30.5562 50.7252 21.6074C35.5367 17.1471 29.9765 24.9809 17.9923 18.9761C8.44613 14.1929 5.84882 3.69657 3.42646 0.875037Z" fill="url(#paint0_linear_3616_1434)"/>
<defs>
<linearGradient id="paint0_linear_3616_1434" x1="0.038323" y1="0.966889" x2="185.636" y2="84.3565" gradientUnits="userSpaceOnUse">
<stop stop-color="#64A70B"/>
<stop offset="1" stop-color="#009CDE"/>
</linearGradient>
</defs>
</svg>
