<svg width="130" height="109" viewBox="0 0 130 109" fill="none" xmlns="http://www.w3.org/2000/svg">
<path d="M0.408625 2.47495L3.41781 0.109618C9.38063 6.66819 35.958 17.064 45.5066 30.5251C56.2776 45.7098 48.0997 75.277 51.3762 81.0393C56.3281 89.7479 84.1379 66.0878 97.2509 71.0171C116.424 78.2246 99.4213 91.2605 128.545 105.047C132.439 106.89 118.482 108.377 118.482 108.377C95.8679 96.7553 109.075 79.9546 97.0493 76.4559C79.1527 71.2491 59.9655 97.0514 48.2387 84.2898C42.0042 77.5051 52.095 48.9901 42.2113 33.6172C32.3856 18.3347 6.68163 11.8802 0.408625 2.47495Z" fill="url(#paint0_linear_3616_1435)"/>
<defs>
<linearGradient id="paint0_linear_3616_1435" x1="0.0192011" y1="1.29837" x2="126.856" y2="106.998" gradientUnits="userSpaceOnUse">
<stop stop-color="#64A70B"/>
<stop offset="1" stop-color="#009CDE"/>
</linearGradient>
</defs>
</svg>
