<svg width="49" height="50" viewBox="0 0 49 50" fill="none" xmlns="http://www.w3.org/2000/svg">
<path d="M19.1013 11.9555C18.0696 11.3772 17.1129 10.6728 16.2575 9.86213C14.5299 8.22365 13.1556 6.12748 12.1735 3.63271L10.7438 0L9.31383 3.63301C8.33172 6.12809 6.95774 8.22426 5.23017 9.86213C4.37082 10.6768 3.41443 11.3818 2.38854 11.9574L0 13.2977L2.38854 14.638C3.41504 15.2141 4.37113 15.9189 5.22986 16.7332C6.95743 18.3708 8.33141 20.4667 9.31383 22.962L10.7438 26.5951L12.1738 22.962C13.1559 20.4673 14.5299 18.3711 16.2578 16.7329C17.1168 15.9186 18.0738 15.2132 19.1019 14.6365L21.4919 13.2958L19.1013 11.9555Z" fill="white"/>
<path d="M44.2042 27.8627C43.1557 27.2746 42.1837 26.5592 41.3155 25.7363C39.5423 24.0549 38.1267 21.8911 37.1094 19.3057L34.2491 12.0391L31.389 19.3057C30.3714 21.8908 28.9564 24.0546 27.1826 25.7363C26.3101 26.5635 25.339 27.2795 24.2966 27.8643L19.5195 30.5449L24.2969 33.2252C25.3396 33.8102 26.3107 34.5263 27.1826 35.3532C28.9564 37.0351 30.3717 39.1987 31.3894 41.7837L34.2494 49.0504L37.1097 41.7837C38.1273 39.1983 39.5426 37.0348 41.3164 35.3529C42.1892 34.5254 43.1612 33.8087 44.2046 33.2236L48.9838 30.5427L44.2042 27.8627Z" fill="white"/>
</svg>
